<svg width="22" height="22" viewBox="0 0 22 22" fill="none" xmlns="http://www.w3.org/2000/svg">
<path d="M11 6.06504L11.735 8.45004L12.215 10.04H16.595L14.285 11.81L13.055 12.755L13.505 14.255L14.315 16.895L12.365 15.395L11 14.345L9.63505 15.395L7.68504 16.895L8.49504 14.255L8.94504 12.755L7.71504 11.81L5.40504 10.04H9.78504L10.265 8.45004L11 6.06504ZM11 0.500039C10.8124 0.498271 10.6293 0.557197 10.4779 0.668029C10.3265 0.778861 10.215 0.93566 10.16 1.11504L8.12004 7.79004H1.38504C1.21945 7.8073 1.06208 7.87092 0.931012 7.9736C0.799948 8.07628 0.700507 8.21385 0.644112 8.3705C0.587716 8.52715 0.576655 8.69654 0.612198 8.8592C0.647741 9.02185 0.728447 9.17119 0.845045 9.29004L6.33504 13.595L4.26504 20.375C4.22495 20.5058 4.21625 20.6442 4.23965 20.7789C4.26305 20.9137 4.31788 21.041 4.39971 21.1506C4.48153 21.2602 4.58804 21.3489 4.7106 21.4096C4.83315 21.4704 4.96828 21.5013 5.10504 21.5C5.29429 21.4949 5.47744 21.4321 5.63004 21.32L11 17.18L16.37 21.305C16.5163 21.4304 16.7024 21.4995 16.895 21.5C17.0324 21.4989 17.1677 21.4657 17.29 21.4033C17.4124 21.3408 17.5186 21.2507 17.6001 21.1401C17.6816 21.0294 17.7362 20.9014 17.7596 20.766C17.7831 20.6306 17.7746 20.4916 17.735 20.36L15.665 13.595L21.155 9.36504C21.2716 9.24619 21.3523 9.09685 21.3879 8.9342C21.4234 8.77154 21.4124 8.60216 21.356 8.4455C21.2996 8.28885 21.2001 8.15128 21.0691 8.0486C20.938 7.94592 20.7806 7.8823 20.615 7.86504H13.88L11.84 1.11504C11.7851 0.93566 11.6736 0.778861 11.5222 0.668029C11.3708 0.557197 11.1877 0.498271 11 0.500039Z" fill="black"/>
</svg>
