<svg width="22" height="20" viewBox="0 0 22 20" fill="none" xmlns="http://www.w3.org/2000/svg">
<path d="M21.035 1.20996C20.8942 1.09053 20.7255 1.00866 20.5445 0.97194C20.3636 0.935224 20.1763 0.944864 20 0.999962L15.185 2.82996L8.13503 0.999962C8.09022 0.99398 8.04483 0.99398 8.00003 0.999962C7.89621 0.977663 7.78884 0.977663 7.68503 0.999962V0.999962L1.29503 2.91996C1.06414 2.9908 0.862182 3.13406 0.719012 3.32856C0.575843 3.52305 0.499062 3.75846 0.500025 3.99996V17.875C0.498842 18.0498 0.538986 18.2225 0.617186 18.3789C0.695386 18.5353 0.80943 18.671 0.950025 18.775C1.13738 18.924 1.37062 19.0036 1.61003 19C1.70941 19.0157 1.81064 19.0157 1.91003 19L7.91003 17.215L14.975 19H15.23C15.3496 19.0144 15.4705 19.0144 15.59 19L20.75 17.125C20.9787 17.042 21.1749 16.8881 21.3098 16.6857C21.4448 16.4832 21.5114 16.243 21.5 16V2.12496C21.4983 1.94692 21.4554 1.7717 21.3747 1.61297C21.2941 1.45425 21.1778 1.31632 21.035 1.20996V1.20996ZM9.03503 3.56496L14.195 4.88496V16.435L9.03503 15.115V3.56496ZM6.77003 15.16L2.70503 16.375V4.83996L6.77003 3.62496V15.16ZM19.295 15.16L16.295 16.24V4.79496L19.295 3.71496V15.16Z" fill="black"/>
</svg>
