<svg width="22" height="22" viewBox="0 0 22 22" fill="none" xmlns="http://www.w3.org/2000/svg">
<path d="M9.17469 2.99L18.7351 12.155L12.5066 18.695L2.96121 9.5V3.32L9.09965 2.945L9.17469 2.99ZM9.50488 0.500002H9.38481L2.27082 0.935002C1.81811 0.968706 1.39444 1.17065 1.0833 1.50105C0.772167 1.83145 0.596131 2.26633 0.589881 2.72L0.499831 9.89C0.4954 10.1111 0.537158 10.3307 0.622438 10.5347C0.707718 10.7387 0.834645 10.9228 0.995108 11.075L11.4109 21.065C11.7101 21.3398 12.1002 21.4947 12.5066 21.5C12.7492 21.4976 12.9887 21.4458 13.2106 21.3478C13.4325 21.2498 13.6322 21.1076 13.7973 20.93L21.0013 13.325C21.1592 13.1676 21.2845 12.9805 21.37 12.7746C21.4555 12.5687 21.4995 12.3479 21.4995 12.125C21.4995 11.9021 21.4555 11.6813 21.37 11.4754C21.2845 11.2695 21.1592 11.0824 21.0013 10.925L10.6005 0.935002C10.3045 0.655124 9.91235 0.499423 9.50488 0.500002ZM7.25362 5.75C6.95678 5.75 6.66661 5.83798 6.41979 6.0028C6.17298 6.16762 5.98062 6.40189 5.86702 6.67598C5.75342 6.95007 5.7237 7.25167 5.78161 7.54264C5.83952 7.83361 5.98247 8.10088 6.19236 8.31066C6.40226 8.52044 6.66968 8.6633 6.96082 8.72118C7.25195 8.77906 7.55372 8.74935 7.82796 8.63582C8.10221 8.52229 8.33661 8.33003 8.50152 8.08336C8.66644 7.83668 8.75446 7.54667 8.75446 7.25C8.75446 6.85218 8.59633 6.47065 8.31487 6.18934C8.03341 5.90804 7.65166 5.75 7.25362 5.75Z" fill="black"/>
</svg>
